<?xml version="1.0" encoding="UTF-8" standalone="no"?>
<!-- Created with Inkscape (http://www.inkscape.org/) -->

<svg
   width="512"
   height="512"
   viewBox="0 0 512 512"
   version="1.1"
   id="svg1"
   inkscape:version="1.3.2 (091e20e, 2023-11-25, custom)"
   sodipodi:docname="pomodoro_icon.svg"
   xmlns:inkscape="http://www.inkscape.org/namespaces/inkscape"
   xmlns:sodipodi="http://sodipodi.sourceforge.net/DTD/sodipodi-0.dtd"
   xmlns="http://www.w3.org/2000/svg"
   xmlns:svg="http://www.w3.org/2000/svg">
  <sodipodi:namedview
     id="namedview1"
     pagecolor="#505050"
     bordercolor="#ffffff"
     borderopacity="1"
     inkscape:showpageshadow="0"
     inkscape:pageopacity="0"
     inkscape:pagecheckerboard="1"
     inkscape:deskcolor="#505050"
     inkscape:document-units="px"
     inkscape:zoom="1.4485269"
     inkscape:cx="248.52835"
     inkscape:cy="225.4014"
     inkscape:window-width="1920"
     inkscape:window-height="1009"
     inkscape:window-x="-8"
     inkscape:window-y="-8"
     inkscape:window-maximized="1"
     inkscape:current-layer="svg1" />
  <defs
     id="defs1" />
  <g
     id="g1"
     transform="matrix(11.25972,0,0,11.05641,-16.161483,-11.590983)">
    <path
       id="path3"
       style="fill:none;stroke:#000000;stroke-width:4;stroke-dasharray:none"
       d="M 42.983467,21.152279 C 46.078753,30.818309 39.721177,43.930648 24,44.103237 8.2788234,44.275826 2.7971539,31.46792 5.1028276,21.583752 8.2957264,7.8961471 21.813295,13.606052 24.431473,13.648048 c 2.618178,0.042 14.141274,-6.2696682 18.551994,7.504231 z"
       sodipodi:nodetypes="szszs" />
    <path
       style="fill:none;fill-opacity:1;stroke:#000000;stroke-width:1.82774;stroke-dasharray:none;stroke-opacity:1"
       d="m 19.373859,17.041721 c 0,0 -4.385305,1.868818 -5.056414,9.381486 -0.810497,9.073027 4.66764,14.41513 4.66764,14.41513"
       id="path4"
       sodipodi:nodetypes="csc" />
    <path
       style="fill:none;fill-opacity:1;stroke:#000000;stroke-width:2;stroke-dasharray:none;stroke-opacity:1"
       d="m 24.289377,12.094746 c 4.105243,0.02424 5.68533,-6.7309754 5.68533,-6.7309754 l -4.401023,3.0203095 -1.284307,-3.279193 -1.218235,3.279193 -4.91879,-1.7258917 c 0,0 2.031782,5.4123176 6.137025,5.4365576 z"
       id="path5"
       sodipodi:nodetypes="zcccccz" />
  </g>
</svg>
